<svg xmlns="http://www.w3.org/2000/svg" version="1.1" xmlns:xlink="http://www.w3.org/1999/xlink" xmlns:svgjs="http://svgjs.dev/svgjs" width="512" height="512"><svg width="512" height="512" viewBox="0 0 512 512" fill="none" xmlns="http://www.w3.org/2000/svg">
<path d="M320 321C314.18 327.95 310.48 335.07 302.75 340.75C295.02 346.44 287.77 349.28 282 355C280.75 354.7 280.29 353.17 279 353C272.64 357.55 275.34 361.73 278 367C269.81 371.57 261.26 365.45 253 364C254.92 369.05 259.52 370.47 264 372C260.15 375.09 255.58 369.67 251 371C254.83 367.6 249.48 367.14 249 371C234.07 361.4 213.13 350.65 204 332C197.43 325.43 190.65 319.81 185 313C166.69 292.48 168.66 262.19 164 236C160.95 238.77 155.48 240.44 152 238C175.76 236.28 155.7 209.47 156 197C144.81 203.1 159.65 212.56 160 220C156.52 220.92 154.31 217.58 151 218C151.15 208.62 135.23 204.9 138.02 194.02C140.82 183.15 149.24 178.31 141 170C143.81 166.22 139.23 159.24 145 158C144.01 148.1 144.22 136.95 142.78 127.22C141.34 117.49 142.11 106.63 143.22 97.22C144.33 87.81 148.13 79.86 150.02 71.02C151.92 62.18 156.78 56.7 160 51C122.33 71.11 90.89 89.28 64.3 126.3C37.72 163.32 22.13 201.73 16.98 248.98C11.82 296.22 24.78 346.77 46 388C47.67 386.41 56.24 389.09 59 389C61.76 388.91 67.48 391.31 67.97 395.03C68.46 398.75 75.33 400.17 79 399C85.42 406.21 93.83 415.25 99.92 424.08C106.01 432.92 111.21 444.01 120 450C114.45 445.12 112.89 437.26 109.69 431.31C106.5 425.35 99.45 421.41 96.25 415.75C93.04 410.1 82.62 404.41 88 400C86.25 398.7 82.56 399.26 83 396C92.21 400.19 101.4 401.87 110.08 407.92C118.75 413.97 128.43 416.85 138.68 419.32C148.92 421.8 157.57 422.22 166 426C165.31 421.04 158.94 420.21 157 416C161.51 413.42 166.6 415.86 171 417C169.53 412.29 175.65 413.5 177.3 412.72C178.96 411.93 186.54 410.97 190 412C183 407 171.82 406.6 161.78 405.22C151.74 403.85 137.03 405.25 127 404C116.97 402.75 107.37 401.14 98.33 397.67C89.29 394.2 81.45 391.34 72.92 387.08C64.4 382.82 56.94 378.89 48 378C52.92 376.49 57.6 373.98 63 374C61.24 378.81 68.21 374.27 72.02 375.98C75.84 377.68 81.29 378.69 85 378C85.09 375.35 81.06 375.28 79 375C83.44 372.83 88.51 373.23 93 375C94.19 372.56 90.39 369.64 93 368C98.95 367.92 104.79 369.71 111 371C109.93 366.78 110.23 363.74 107 361C114.98 359.34 124.99 359.44 134.69 364.31C144.4 369.17 154.21 371.51 164 376C151.6 367.69 134.03 363.68 123 354C145.83 367.06 171.28 375.19 194 387C204.86 392.55 218.01 394.57 229 400C228.14 398.8 227.43 393.23 232 394C233.74 403.34 245.36 404.17 254.02 404.98C262.69 405.79 276.5 408.61 284 403C291.21 413.63 307.54 403.22 317 405C314.65 407.25 311.07 407.75 309 410C313.37 410.18 316.61 405.27 321 408C322.72 405.45 325.34 403.29 327 401C327.31 405.39 322.16 407.69 322 412C324.48 412.25 326.42 415.47 329 413C328.31 418.26 330.01 423.13 331 429C333.59 427.36 330.34 422.57 333 421C335.58 422.73 336.51 424.9 335 428C337.32 429.26 340.8 434.54 342 428C343.51 431.46 341.61 434.67 344 438C346.95 437.36 351.04 433.98 352 439C350.47 440.27 348.05 438.54 347 441C350.06 441.67 347.81 444.47 346 445C348.32 447.71 348.83 457.73 356 453C351.02 458.51 359.34 457.86 363 458C361.16 460.64 355.88 463.38 354 460C355.22 463.78 351.58 464.72 349 466C349.7 468.61 350.12 474.38 353 470C355.55 478.17 365.84 479.51 373 482C374.71 481.05 376.47 479.92 378 479C367.39 480.71 355.42 474.32 351 466C355.99 465.69 356.44 464.94 361.01 463.01C365.58 461.08 368.59 463.97 362 465C366.02 465.56 369.43 469 373 466C370.69 469.1 372.05 469.18 376 469C374.55 473.23 379.84 473.67 381 477C386.56 473.61 392.4 469.32 398 466C401.05 457.12 386.97 444.43 395 437C395.58 446.25 397.13 456.07 401 464C401.28 463.84 402.84 463.07 403 463C403.96 458.11 400.37 450.43 399.68 445.32C398.98 440.22 398.17 430.78 391 436C391.75 433.74 393.45 432.02 396 432C394.55 429.32 392 431.19 390 430C390.24 425.66 395.07 421.86 388 425C388.68 418.91 395.08 421.39 395 426C393.61 420.79 395.71 418.59 397 415C402.52 425.87 405.91 437.53 406 450C409.15 446.54 404.94 440.15 407 437C411.67 441.34 410.78 448.63 415 453C415.99 452.1 416.01 452.71 417 452C416.89 452.19 416.33 448.57 416 448C417.28 447.47 417.86 448.97 419 449C423.17 443.26 430.82 437.08 436 432C436.73 429.55 435.45 426.5 436 424C438.94 424.43 436.92 428.09 439 429C443.36 423.45 449.21 417.76 453 412C453.74 410.33 452.44 407.75 453 406C454.56 406.41 455.69 405.54 457 405C478.67 374.36 488.67 341.97 495 305C501.34 268.03 494.45 218.92 481.77 185.23C469.09 151.54 450.97 128.28 427.25 101.75C403.52 75.22 374 64.04 345 47C342.65 51.43 342.37 58.71 349 59C349.53 56.32 345.52 55.66 346 53C351.84 56.87 352.49 65.57 358.25 70.75C364 75.94 365.4 82.11 369.07 88.93C372.75 95.74 373.22 105.24 375 113C376.79 120.75 376.21 131.33 376 139C375.78 146.66 371.18 156.58 370.99 163.99C370.81 171.41 364.57 183.18 373 183C369.8 191.42 362.23 197 362 207C373.73 203.65 373.27 230.23 361 228C356.12 233.94 347.98 245.59 355 253C345.76 254.21 348.05 269.94 344.99 277.99C341.93 286.04 339.37 294.59 335.3 302.3C331.24 310.01 325.51 314.42 320 321ZM130 155C127.52 159.43 128.1 164.13 129 169C126.36 165.47 125.48 157.74 130 155ZM140 169C137.17 175.09 135.48 181.47 134 188C132.95 179.4 131.85 169.99 131 161C134.45 163.05 136.58 167 140 169ZM130 173C130.67 175.94 128.91 178.18 129 181C126.97 179.13 128.88 174.82 130 173ZM374 206C371.43 202.4 370.26 194.44 375 192C376.57 195.79 374.63 201.59 374 206ZM309 360C316.36 369.86 324.9 382.1 324 394C323.24 389.83 321.11 386.07 320 382C316.7 385.37 324.25 395.62 317 396C317.3 389.46 314.04 380.82 311.69 375.31C309.35 369.79 301.85 362.03 309 360ZM452 386C446.67 384.69 446.57 377.37 445 373C448.53 376.56 448.07 382.49 452 386ZM441 397C438.57 394.54 438.28 390.47 438 387C434.44 393.51 435.36 385.19 437 382C440.3 384.63 439.45 392.33 441 397ZM460 398C458.88 394.83 458.56 391.84 455 392C457.3 383.62 463.76 393.09 460 398ZM230 393C227.24 393.14 224.47 391.13 223 389C225.32 389.96 229.82 389.72 230 393ZM74 395C69.18 389.45 68.68 398.02 74 395ZM142 413C138.66 415.75 133.9 412.71 130 413C133.29 410.42 137.88 414.3 142 413ZM337 413C336.55 415.56 339.76 419.06 337 421C335.32 418.81 334.72 415.54 337 413ZM425 426C426.19 429.85 426.08 434.05 427 438C424.16 435.59 423.82 428.93 425 426ZM362 452C361.11 454.14 359.94 456.76 357 456C361.86 453.92 357.45 446.66 353 449C353.43 445.5 358.08 446.78 356 443C359.34 444.85 357.55 450.69 362 452Z" fill="#CFA67F"></path>
<path d="M336 258C346.55 255.7 350.96 237.88 354.22 228.22C357.48 218.57 357.5 217.29 359 209C360.5 200.71 356.13 193.58 357.01 186.01C357.89 178.44 358 170.17 359 163C359.99 155.83 354.07 150.89 352.77 145.23C351.48 139.56 349.41 135.09 351.22 128.22C353.04 121.35 354.54 113.74 352.93 107.07C351.32 100.41 349.57 95.72 344.75 91.25C339.93 86.78 337.51 82.81 331.68 79.32C325.84 75.84 320.78 80.76 314.07 82.07C307.37 83.38 300.08 83.02 292 82C283.92 80.98 277.37 83.48 268 83C258.63 82.52 258.09 83.63 249.23 76.77C240.37 69.91 223.95 67.57 214.02 62.98C204.1 58.38 200.09 60.68 192.23 59.79C184.37 58.89 182.33 64.72 179.99 69.99C177.66 75.26 175.44 83.58 175.66 87.32C175.89 91.07 168.84 103.91 176 101C171.84 105.16 176.78 109.78 172 111C171.45 114.21 172.67 115.6 175 113C172.55 124.68 159.31 132.71 162.02 145.98C164.74 159.25 163.58 175.2 161.98 187.98C160.37 200.75 163.13 214.88 168.08 225.92C173.02 236.97 176.87 246.93 188 251C184.85 255.2 193.8 265.94 200 262C198.96 264.38 196.11 265.59 195 268C198.45 266.4 200.93 263.72 204 268C205.51 265.7 212.35 262.63 208 260C214.38 255.14 222.47 254.86 229.33 253.33C236.18 251.79 248.2 255.5 251 248C253.03 248.73 253.96 251.19 256 252C255.99 249.59 253.55 248.28 253 246C257.84 241.95 267.04 242.96 268 250C273.34 243.44 282.61 238.37 290 245C288.97 250.63 275.17 255.23 279 248C275.48 248.5 269.51 248.67 271 254C276.89 253.41 281.34 257.9 287 256C287.09 259.43 294.15 263.08 290 258C297.02 259.8 302.73 260.47 309.97 263.03C317.22 265.58 317.4 275.32 325 277C322.85 272.25 325.38 273.88 327 277C329.12 270.4 335.15 265.12 336 258ZM270 166C271.94 161.28 273.95 156.56 273 151C274.74 155.39 280.67 156.8 284 162C290.31 157.43 298.47 164.57 307.01 162.01C315.54 159.44 323.9 164.16 330.7 168.3C337.49 172.45 347.96 172.74 348 183C343.05 181.51 344.82 187.36 341 188C343.28 189.79 346.14 190.97 348 193C342.41 191.55 341.69 193.99 336.98 193.02C332.27 192.05 327.92 189.07 324 192C329.74 192.23 325.99 193.82 325 198C322.18 198.43 313.49 196.36 318 201C313.7 200.64 309.54 199.47 305 200C301.64 207.6 291.1 203.83 286.08 197.92C281.07 192 275.72 184.53 277 176C270.44 170.34 254.43 170.36 253.01 181.01C251.59 191.66 240.91 195.3 232 198C230.09 191.07 223.47 190.68 216.98 190.02C210.48 189.37 204.68 187.92 199.25 183.75C193.82 179.59 189.39 181.06 182.77 178.23C176.15 175.4 184.61 166.33 176 165C176.8 161.88 184.39 160.8 180 158C195.56 153.72 211.48 150.68 228 150C231.46 160.53 241.49 152.02 248.07 155.07C254.66 158.12 261.36 159.43 263 149C265.45 154.15 261.38 164.58 270 166ZM251 247C248.68 246.74 242.26 243.03 245 248C239.27 248.92 235.37 242.97 235 238C241.6 236.63 250.22 239.72 251 247Z" fill="#CFA67F"></path>
<path d="M156 192C154.87 187.91 154.41 183.07 152.92 179.08C151.43 175.1 146 175.44 145 172C146.15 179.46 151.65 186.13 156 192Z" fill="#CFA67F"></path>
<path d="M361 214C357.82 217.7 358.2 223.58 356 228C362.16 226.93 363.59 218.86 361 214Z" fill="#CFA67F"></path>
<path d="M277 274C269.7 272.48 259.05 272.45 252 273C259.31 277.05 269.65 277.04 277 274Z" fill="#CFA67F"></path>
<path d="M325 279C323.06 278.09 321.06 277.39 319 277C319.28 279.81 318.8 282.49 318 285C320.14 283.43 324.02 281.63 325 279Z" fill="#CFA67F"></path>
<path d="M264 291C257.86 288.2 247.41 292.72 240.23 287.77C233.05 282.82 224.87 280.98 218 287C219.77 290.57 219.44 298.19 226 297C224.08 302.13 230.79 301.62 228 306C231.19 304.35 238.47 303.05 235 309C241.76 307.92 242.15 302.04 241 296C247.55 294.93 257.9 291.29 264.33 293.67C270.75 296.05 280.24 294.11 283.67 300.33C287.09 306.54 269.54 308.84 276.25 315.75C282.96 322.67 290.25 315.51 297 315C293.38 311.88 296.85 310.17 300 309C297.9 302.32 308.05 297.83 312 293C313.47 295.97 317.07 297.26 320 298C316.12 294.19 320.49 288.92 316 286C310.93 291.01 304.12 281.19 296.68 284.68C289.24 288.17 282.13 289.47 274 290C279.58 283.36 264.85 285.27 264 291Z" fill="#CFA67F"></path>
<path d="M246 309C242.73 309.23 242.2 313.61 239 314C241.51 315.75 245.2 317.64 248 316C245.6 313.59 244.92 314.11 246 309Z" fill="#CFA67F"></path>
<path d="M115 375C111.53 374.38 108.43 372.62 105 372C110.09 377.82 118.25 383.84 126 387C123.16 382.8 112.93 381.47 115 375Z" fill="#CFA67F"></path>
<path d="M47 390C47.26 390.4 47.51 391.74 48 392C52.28 394.28 56.39 392.87 60.78 396.22C65.16 399.56 64.57 392.03 60.02 390.98C55.48 389.92 50.25 391.38 47 390Z" fill="#CFA67F"></path>
<path d="M57 407C57.37 407.67 57.64 408.21 58 409C61.78 408.46 62.2 412.57 65 414C68.57 411.27 57.33 405.16 57 407Z" fill="#CFA67F"></path>
<path d="M86 432C89.12 429.29 85.5 425.83 82 425C85.18 430.03 84.95 442.45 94 436C91.77 434.4 88.18 434.47 86 432Z" fill="#CFA67F"></path>
<path d="M160 51C156.78 56.7 151.92 62.18 150.02 71.02C148.13 79.86 144.33 87.81 143.22 97.22C142.11 106.63 141.34 117.49 142.78 127.22C144.22 136.95 144.01 148.1 145 158C139.23 159.24 143.81 166.22 141 170C149.24 178.31 140.82 183.15 138.02 194.02C135.23 204.9 151.15 208.62 151 218C154.31 217.58 156.52 220.92 160 220C159.65 212.56 144.81 203.1 156 197C155.7 209.47 175.76 236.28 152 238C155.48 240.44 160.95 238.77 164 236C168.66 262.19 166.69 292.48 185 313C184.07 311.09 183.73 309.22 184 307C199.88 305.14 222.32 306.54 227 325C232.13 323 235.65 322.6 238 328C238.93 325.83 241.05 324.89 243 324C242.15 329.16 245.48 336.06 251 334C256.53 331.94 259.71 329.67 262 336C264.7 336.6 266.83 334.03 268 332C271.16 334.19 273.47 334.79 277 335C273.14 327.68 284.48 327.24 282 335C289.24 332.72 296.32 330.17 302 327C302.05 324.78 299.71 323.01 298 322C303.55 316.31 302.55 307.12 310 303C314.45 307.68 318.25 313.31 313 319C315.61 320.98 318.25 315.82 320 321C325.51 314.42 331.24 310.01 335.3 302.3C339.37 294.59 341.93 286.04 344.99 277.99C348.05 269.94 345.76 254.21 355 253C347.98 245.59 356.12 233.94 361 228C373.27 230.23 373.73 203.65 362 207C362.23 197 369.8 191.42 373 183C364.57 183.18 370.81 171.41 370.99 163.99C371.18 156.58 375.78 146.66 376 139C376.21 131.33 376.79 120.75 375 113C373.22 105.24 372.75 95.74 369.07 88.93C365.4 82.11 364 75.94 358.25 70.75C352.49 65.57 351.84 56.87 346 53C345.52 55.66 349.53 56.32 349 59C342.37 58.71 342.65 51.43 345 47C337.23 42.93 331.76 31.5 324.68 28.32C317.6 25.14 310.41 15.78 303 18C303.26 13.85 300.41 12.98 298 9.99999C289.89 13.97 285.17 4.50999 277 8.99999C274.79 8.23999 273.97 5.84999 273 3.99999C269.11 8.24999 265.09 4.64999 261 5.99999C262.96 1.42999 250.59 -1.33001 255 5.99999C252.17 6.41999 251.46 3.13999 251 1.99999C243.45 8.60999 230.4 4.09999 222 11C219.25 10.24 218.87 7.28999 216 8.99999C222.21 15.17 207.96 12.09 204.1 16.1C200.24 20.11 194.68 24.25 189.25 27.25C183.81 30.24 180.25 37.04 174.22 39.22C168.2 41.41 165.24 48.2 160 51ZM336 258C335.15 265.12 329.12 270.4 327 277C325.38 273.88 322.85 272.25 325 277C317.4 275.32 317.22 265.58 309.97 263.03C302.73 260.47 297.02 259.8 290 258C294.15 263.08 287.09 259.43 287 256C281.34 257.9 276.89 253.41 271 254C269.51 248.67 275.48 248.5 279 248C275.17 255.23 288.97 250.63 290 245C282.61 238.37 273.34 243.44 268 250C267.04 242.96 257.84 241.95 253 246C253.55 248.28 255.99 249.59 256 252C253.96 251.19 253.03 248.73 251 248C248.2 255.5 236.18 251.79 229.33 253.33C222.47 254.86 214.38 255.14 208 260C212.35 262.63 205.51 265.7 204 268C200.93 263.72 198.45 266.4 195 268C196.11 265.59 198.96 264.38 200 262C193.8 265.94 184.85 255.2 188 251C176.87 246.93 173.02 236.97 168.08 225.92C163.13 214.88 160.37 200.75 161.98 187.98C163.58 175.2 164.74 159.25 162.02 145.98C159.31 132.71 172.55 124.68 175 113C172.67 115.6 171.45 114.21 172 111C176.78 109.78 171.84 105.16 176 101C168.84 103.91 175.89 91.07 175.66 87.32C175.44 83.58 177.66 75.26 179.99 69.99C182.33 64.72 184.37 58.89 192.23 59.79C200.09 60.68 204.1 58.38 214.02 62.98C223.95 67.57 240.37 69.91 249.23 76.77C258.09 83.63 258.63 82.52 268 83C277.37 83.48 283.92 80.98 292 82C300.08 83.02 307.37 83.38 314.07 82.07C320.78 80.76 325.84 75.84 331.68 79.32C337.51 82.81 339.93 86.78 344.75 91.25C349.57 95.72 351.32 100.41 352.93 107.07C354.54 113.74 353.04 121.35 351.22 128.22C349.41 135.09 351.48 139.56 352.77 145.23C354.07 150.89 359.99 155.83 359 163C358 170.17 357.89 178.44 357.01 186.01C356.13 193.58 360.5 200.71 359 209C357.5 217.29 357.48 218.57 354.22 228.22C350.96 237.88 346.55 255.7 336 258ZM156 192C151.65 186.13 146.15 179.46 145 172C146 175.44 151.43 175.1 152.92 179.08C154.41 183.07 154.87 187.91 156 192ZM361 214C363.59 218.86 362.16 226.93 356 228C358.2 223.58 357.82 217.7 361 214ZM222 274C226.53 276.92 232.24 275.69 237 278C231.25 282.73 222.5 275.68 215 278C216.31 276.27 217.62 274.39 219 273C211.61 263.33 220.47 256.76 229 263C232.64 253.11 250.91 255.59 245.07 265.07C239.23 274.56 228.05 261.01 222 274ZM277 274C269.65 277.04 259.31 277.05 252 273C259.05 272.45 269.7 272.48 277 274ZM325 279C324.02 281.63 320.14 283.43 318 285C318.8 282.49 319.28 279.81 319 277C321.06 277.39 323.06 278.09 325 279ZM264 291C264.85 285.27 279.58 283.36 274 290C282.13 289.47 289.24 288.17 296.68 284.68C304.12 281.19 310.93 291.01 316 286C320.49 288.92 316.12 294.19 320 298C317.07 297.26 313.47 295.97 312 293C308.05 297.83 297.9 302.32 300 309C296.85 310.17 293.38 311.88 297 315C290.25 315.51 282.96 322.67 276.25 315.75C269.54 308.84 287.09 306.54 283.67 300.33C280.24 294.11 270.75 296.05 264.33 293.67C257.9 291.29 247.55 294.93 241 296C242.15 302.04 241.76 307.92 235 309C238.47 303.05 231.19 304.35 228 306C230.79 301.62 224.08 302.13 226 297C219.44 298.19 219.77 290.57 218 287C224.87 280.98 233.05 282.82 240.23 287.77C247.41 292.72 257.86 288.2 264 291ZM246 309C244.92 314.11 245.6 313.59 248 316C245.2 317.64 241.51 315.75 239 314C242.2 313.61 242.73 309.23 246 309Z" fill="#854C41"></path>
<path d="M270 166C261.38 164.58 265.45 154.15 263 149C261.36 159.43 254.66 158.12 248.07 155.07C241.49 152.02 231.46 160.53 228 150C211.48 150.68 195.56 153.72 180 158C184.39 160.8 176.8 161.88 176 165C184.61 166.33 176.15 175.4 182.77 178.23C189.39 181.06 193.82 179.59 199.25 183.75C204.68 187.92 210.48 189.37 216.98 190.02C223.47 190.68 230.09 191.07 232 198C240.91 195.3 251.59 191.66 253.01 181.01C254.43 170.36 270.44 170.34 277 176C275.72 184.53 281.07 192 286.08 197.92C291.1 203.83 301.64 207.6 305 200C309.54 199.47 313.7 200.64 318 201C313.49 196.36 322.18 198.43 325 198C325.99 193.82 329.74 192.23 324 192C327.92 189.07 332.27 192.05 336.98 193.02C341.69 193.99 342.41 191.55 348 193C346.14 190.97 343.28 189.79 341 188C344.82 187.36 343.05 181.51 348 183C347.96 172.74 337.49 172.45 330.7 168.3C323.9 164.16 315.54 159.44 307.01 162.01C298.47 164.57 290.31 157.43 284 162C280.67 156.8 274.74 155.39 273 151C273.95 156.56 271.94 161.28 270 166ZM252 168C247.34 168.92 241.08 166.81 244 175C240.48 175 234.68 170.25 237 177C233.77 174.68 229.22 172 226 169C224.76 174.69 220.48 179.35 214 178C207.52 176.65 203.96 168.29 213 170C204.82 166.48 199.7 177.43 191 172C191.56 167.45 197.52 166.84 200 164C198.67 161.32 192.8 165.15 193 161C212.08 151.58 235.24 155.04 252 168ZM334 185C331.23 183.23 329.64 185.43 327 186C325.11 183.77 322.33 181.93 320 180C316.53 190.88 301.45 188.72 300 178C292.31 177.36 300.04 186.61 292.97 186.97C285.9 187.33 289.39 182.55 292 179C289.03 179.35 283.36 177.66 284.03 172.97C284.69 168.29 293.07 171.62 292 165C299.28 169.12 312.69 164.42 319.25 168.75C325.8 173.08 331.16 178.36 334 185Z" fill="#854C41"></path>
<path d="M130 155C125.48 157.74 126.36 165.47 129 169C128.1 164.13 127.52 159.43 130 155Z" fill="#854C41"></path>
<path d="M140 169C136.58 167 134.45 163.05 131 161C131.85 169.99 132.95 179.4 134 188C135.48 181.47 137.17 175.09 140 169Z" fill="#854C41"></path>
<path d="M130 173C128.88 174.82 126.97 179.13 129 181C128.91 178.18 130.67 175.94 130 173Z" fill="#854C41"></path>
<path d="M374 206C374.63 201.59 376.57 195.79 375 192C370.26 194.44 371.43 202.4 374 206Z" fill="#854C41"></path>
<path d="M251 247C250.22 239.72 241.6 236.63 235 238C235.37 242.97 239.27 248.92 245 248C242.26 243.03 248.68 246.74 251 247Z" fill="#854C41"></path>
<path d="M279 353C270.28 354.17 259.6 358.83 250 356C240.4 353.17 232.01 353.32 225.25 345.75C218.48 338.19 211.05 337.35 204 332C213.13 350.65 234.07 361.4 249 371C249.48 367.14 254.83 367.6 251 371C255.58 369.67 260.15 375.09 264 372C259.52 370.47 254.92 369.05 253 364C261.26 365.45 269.81 371.57 278 367C275.34 361.73 272.64 357.55 279 353Z" fill="#854C41"></path>
<path d="M46 388C46.42 388.81 46.56 389.32 47 390C50.25 391.38 55.48 389.92 60.02 390.98C64.57 392.03 65.16 399.56 60.78 396.22C56.39 392.87 52.28 394.28 48 392C47.68 393.46 45.87 393.05 45 394C46.65 400.59 54.34 402.18 57 407C57.33 405.16 68.57 411.27 65 414C62.2 412.57 61.78 408.46 58 409C58.75 410.68 60.43 412.04 62 413C59.52 418.18 69.3 427.21 75.75 433.25C82.2 439.28 90.02 446.44 96.77 452.23C103.51 458.02 111.6 464.54 119.77 469.23C127.94 473.92 136.33 480.63 144 485C166.66 493.8 188.04 501.76 214 506C239.96 510.23 274.51 510.57 301 506C297.72 504.08 303.71 500.05 306.23 498.23C308.75 496.41 313.76 496.55 316 500C314.38 492.58 323.58 495.75 326 499C325.92 500.26 323.94 499.56 324 501C330.01 499.51 336.89 497.81 342 497C352.38 493.45 363.13 487.5 373 482C365.84 479.51 355.55 478.17 353 470C350.12 474.38 349.7 468.61 349 466C351.58 464.72 355.22 463.78 354 460C355.88 463.38 361.16 460.64 363 458C359.34 457.86 351.02 458.51 356 453C348.83 457.73 348.32 447.71 346 445C347.81 444.47 350.06 441.67 347 441C348.05 438.54 350.47 440.27 352 439C351.04 433.98 346.95 437.36 344 438C341.61 434.67 343.51 431.46 342 428C340.8 434.54 337.32 429.26 335 428C336.51 424.9 335.58 422.73 333 421C330.34 422.57 333.59 427.36 331 429C330.01 423.13 328.31 418.26 329 413C326.42 415.47 324.48 412.25 322 412C322.16 407.69 327.31 405.39 327 401C325.34 403.29 322.72 405.45 321 408C316.61 405.27 313.37 410.18 309 410C311.07 407.75 314.65 407.25 317 405C307.54 403.22 291.21 413.63 284 403C276.5 408.61 262.69 405.79 254.02 404.98C245.36 404.17 233.74 403.34 232 394C227.43 393.23 228.14 398.8 229 400C252.05 411.4 277.57 420.06 304 417C264.38 428.43 227.3 403.2 194 387C171.28 375.19 145.83 367.06 123 354C134.03 363.68 151.6 367.69 164 376C154.21 371.51 144.4 369.17 134.69 364.31C124.99 359.44 114.98 359.34 107 361C110.23 363.74 109.93 366.78 111 371C104.79 369.71 98.95 367.92 93 368C90.39 369.64 94.19 372.56 93 375C88.51 373.23 83.44 372.83 79 375C81.06 375.28 85.09 375.35 85 378C81.29 378.69 75.84 377.68 72.02 375.98C68.21 374.27 61.24 378.81 63 374C57.6 373.98 52.92 376.49 48 378C56.94 378.89 64.4 382.82 72.92 387.08C81.45 391.34 89.29 394.2 98.33 397.67C107.37 401.14 116.97 402.75 127 404C137.03 405.25 151.74 403.85 161.78 405.22C171.82 406.6 183 407 190 412C186.54 410.97 178.96 411.93 177.3 412.72C175.65 413.5 169.53 412.29 171 417C166.6 415.86 161.51 413.42 157 416C158.94 420.21 165.31 421.04 166 426C157.57 422.22 148.92 421.8 138.68 419.32C128.43 416.85 118.75 413.97 110.08 407.92C101.4 401.87 92.21 400.19 83 396C82.56 399.26 86.25 398.7 88 400C82.62 404.41 93.04 410.1 96.25 415.75C99.45 421.41 106.5 425.35 109.69 431.31C112.89 437.26 114.45 445.12 120 450C111.21 444.01 106.01 432.92 99.92 424.08C93.83 415.25 85.42 406.21 79 399C75.33 400.17 68.46 398.75 67.97 395.03C67.48 391.31 61.76 388.91 59 389C56.24 389.09 47.67 386.41 46 388ZM115 375C112.93 381.47 123.16 382.8 126 387C118.25 383.84 110.09 377.82 105 372C108.43 372.62 111.53 374.38 115 375ZM86 432C88.18 434.47 91.77 434.4 94 436C84.95 442.45 85.18 430.03 82 425C85.5 425.83 89.12 429.29 86 432Z" fill="#854C41"></path>
<path d="M309 360C301.85 362.03 309.35 369.79 311.69 375.31C314.04 380.82 317.3 389.46 317 396C324.25 395.62 316.7 385.37 320 382C321.11 386.07 323.24 389.83 324 394C324.9 382.1 316.36 369.86 309 360Z" fill="#854C41"></path>
<path d="M452 386C448.07 382.49 448.53 376.56 445 373C446.57 377.37 446.67 384.69 452 386Z" fill="#854C41"></path>
<path d="M441 397C439.45 392.33 440.3 384.63 437 382C435.36 385.19 434.44 393.51 438 387C438.28 390.47 438.57 394.54 441 397Z" fill="#854C41"></path>
<path d="M460 398C463.76 393.09 457.3 383.62 455 392C458.56 391.84 458.88 394.83 460 398Z" fill="#854C41"></path>
<path d="M230 393C229.82 389.72 225.32 389.96 223 389C224.47 391.13 227.24 393.14 230 393Z" fill="#854C41"></path>
<path d="M74 395C69.18 389.45 68.68 398.02 74 395Z" fill="#854C41"></path>
<path d="M453 412C454.66 409.48 455.43 407.22 457 405C455.69 405.54 454.56 406.41 453 406C452.44 407.75 453.74 410.33 453 412Z" fill="#854C41"></path>
<path d="M142 413C137.88 414.3 133.29 410.42 130 413C133.9 412.71 138.66 415.75 142 413Z" fill="#854C41"></path>
<path d="M337 413C334.72 415.54 335.32 418.81 337 421C339.76 419.06 336.55 415.56 337 413Z" fill="#854C41"></path>
<path d="M403 463C408.66 460.65 410.7 456.92 415 453C410.78 448.63 411.67 441.34 407 437C404.94 440.15 409.15 446.54 406 450C405.91 437.53 402.52 425.87 397 415C395.71 418.59 393.61 420.79 395 426C395.08 421.39 388.68 418.91 388 425C395.07 421.86 390.24 425.66 390 430C392 431.19 394.55 429.32 396 432C393.45 432.02 391.75 433.74 391 436C398.17 430.78 398.98 440.22 399.68 445.32C400.37 450.43 403.96 458.11 403 463Z" fill="#854C41"></path>
<path d="M436 432C437.02 431 438.05 430.21 439 429C436.92 428.09 438.94 424.43 436 424C435.45 426.5 436.73 429.55 436 432Z" fill="#854C41"></path>
<path d="M425 426C423.82 428.93 424.16 435.59 427 438C426.08 434.05 426.19 429.85 425 426Z" fill="#854C41"></path>
<path d="M398 466C398.93 465.45 400.13 464.5 401 464C397.13 456.07 395.58 446.25 395 437C386.97 444.43 401.05 457.12 398 466Z" fill="#854C41"></path>
<path d="M362 452C357.55 450.69 359.34 444.85 356 443C358.08 446.78 353.43 445.5 353 449C357.45 446.66 361.86 453.92 357 456C359.94 456.76 361.11 454.14 362 452Z" fill="#854C41"></path>
<path d="M417 452C418.51 450.91 418.1 450.25 419 449C417.86 448.97 417.28 447.47 416 448C416.33 448.57 416.89 452.19 417 452Z" fill="#854C41"></path>
<path d="M378 479C379 478.4 380.14 477.52 381 477C379.84 473.67 374.55 473.23 376 469C372.05 469.18 370.69 469.1 373 466C369.43 469 366.02 465.56 362 465C368.59 463.97 365.58 461.08 361.01 463.01C356.44 464.94 355.99 465.69 351 466C355.42 474.32 367.39 480.71 378 479Z" fill="#854C41"></path>
<path d="M160 51C156.78 56.7 151.92 62.18 150.02 71.02C148.13 79.86 144.33 87.81 143.22 97.22C142.11 106.63 141.34 117.49 142.78 127.22C144.22 136.95 144.01 148.1 145 158C139.23 159.24 143.81 166.22 141 170C149.24 178.31 140.82 183.15 138.02 194.02C135.23 204.9 151.15 208.62 151 218C154.31 217.58 156.52 220.92 160 220C159.65 212.56 144.81 203.1 156 197C155.7 209.47 175.76 236.28 152 238C155.48 240.44 160.95 238.77 164 236C168.66 262.19 166.69 292.48 185 313C184.07 311.09 183.73 309.22 184 307C199.88 305.14 222.32 306.54 227 325C232.13 323 235.65 322.6 238 328C238.93 325.83 241.05 324.89 243 324C242.15 329.16 245.48 336.06 251 334C256.53 331.94 259.71 329.67 262 336C264.7 336.6 266.83 334.03 268 332C271.16 334.19 273.47 334.79 277 335C273.14 327.68 284.48 327.24 282 335C289.24 332.72 296.32 330.17 302 327C302.05 324.78 299.71 323.01 298 322C303.55 316.31 302.55 307.12 310 303C314.45 307.68 318.25 313.31 313 319C315.61 320.98 318.25 315.82 320 321C325.51 314.42 331.24 310.01 335.3 302.3C339.37 294.59 341.93 286.04 344.99 277.99C348.05 269.94 345.76 254.21 355 253C347.98 245.59 356.12 233.94 361 228C373.27 230.23 373.73 203.65 362 207C362.23 197 369.8 191.42 373 183C364.57 183.18 370.81 171.41 370.99 163.99C371.18 156.58 375.78 146.66 376 139C376.21 131.33 376.79 120.75 375 113C373.22 105.24 372.75 95.74 369.07 88.93C365.4 82.11 364 75.94 358.25 70.75C352.49 65.57 351.84 56.87 346 53C345.52 55.66 349.53 56.32 349 59C342.37 58.71 342.65 51.43 345 47C337.23 42.93 331.76 31.5 324.68 28.32C317.6 25.14 310.41 15.78 303 18C303.26 13.85 300.41 12.98 298 9.99999C289.89 13.97 285.17 4.50999 277 8.99999C274.79 8.23999 273.97 5.84999 273 3.99999C269.11 8.24999 265.09 4.64999 261 5.99999C262.96 1.42999 250.59 -1.33001 255 5.99999C252.17 6.41999 251.46 3.13999 251 1.99999C243.45 8.60999 230.4 4.09999 222 11C219.25 10.24 218.87 7.28999 216 8.99999C222.21 15.17 207.96 12.09 204.1 16.1C200.24 20.11 194.68 24.25 189.25 27.25C183.81 30.24 180.25 37.04 174.22 39.22C168.2 41.41 165.24 48.2 160 51ZM336 258C335.15 265.12 329.12 270.4 327 277C325.38 273.88 322.85 272.25 325 277C317.4 275.32 317.22 265.58 309.97 263.03C302.73 260.47 297.02 259.8 290 258C294.15 263.08 287.09 259.43 287 256C281.34 257.9 276.89 253.41 271 254C269.51 248.67 275.48 248.5 279 248C275.17 255.23 288.97 250.63 290 245C282.61 238.37 273.34 243.44 268 250C267.04 242.96 257.84 241.95 253 246C253.55 248.28 255.99 249.59 256 252C253.96 251.19 253.03 248.73 251 248C248.2 255.5 236.18 251.79 229.33 253.33C222.47 254.86 214.38 255.14 208 260C212.35 262.63 205.51 265.7 204 268C200.93 263.72 198.45 266.4 195 268C196.11 265.59 198.96 264.38 200 262C193.8 265.94 184.85 255.2 188 251C176.87 246.93 173.02 236.97 168.08 225.92C163.13 214.88 160.37 200.75 161.98 187.98C163.58 175.2 164.74 159.25 162.02 145.98C159.31 132.71 172.55 124.68 175 113C172.67 115.6 171.45 114.21 172 111C176.78 109.78 171.84 105.16 176 101C168.84 103.91 175.89 91.07 175.66 87.32C175.44 83.58 177.66 75.26 179.99 69.99C182.33 64.72 184.37 58.89 192.23 59.79C200.09 60.68 204.1 58.38 214.02 62.98C223.95 67.57 240.37 69.91 249.23 76.77C258.09 83.63 258.63 82.52 268 83C277.37 83.48 283.92 80.98 292 82C300.08 83.02 307.37 83.38 314.07 82.07C320.78 80.76 325.84 75.84 331.68 79.32C337.51 82.81 339.93 86.78 344.75 91.25C349.57 95.72 351.32 100.41 352.93 107.07C354.54 113.74 353.04 121.35 351.22 128.22C349.41 135.09 351.48 139.56 352.77 145.23C354.07 150.89 359.99 155.83 359 163C358 170.17 357.89 178.44 357.01 186.01C356.13 193.58 360.5 200.71 359 209C357.5 217.29 357.48 218.57 354.22 228.22C350.96 237.88 346.55 255.7 336 258ZM156 192C151.65 186.13 146.15 179.46 145 172C146 175.44 151.43 175.1 152.92 179.08C154.41 183.07 154.87 187.91 156 192ZM361 214C363.59 218.86 362.16 226.93 356 228C358.2 223.58 357.82 217.7 361 214ZM222 274C226.53 276.92 232.24 275.69 237 278C231.25 282.73 222.5 275.68 215 278C216.31 276.27 217.62 274.39 219 273C211.61 263.33 220.47 256.76 229 263C232.64 253.11 250.91 255.59 245.07 265.07C239.23 274.56 228.05 261.01 222 274ZM277 274C269.65 277.04 259.31 277.05 252 273C259.05 272.45 269.7 272.48 277 274ZM325 279C324.02 281.63 320.14 283.43 318 285C318.8 282.49 319.28 279.81 319 277C321.06 277.39 323.06 278.09 325 279ZM264 291C264.85 285.27 279.58 283.36 274 290C282.13 289.47 289.24 288.17 296.68 284.68C304.12 281.19 310.93 291.01 316 286C320.49 288.92 316.12 294.19 320 298C317.07 297.26 313.47 295.97 312 293C308.05 297.83 297.9 302.32 300 309C296.85 310.17 293.38 311.88 297 315C290.25 315.51 282.96 322.67 276.25 315.75C269.54 308.84 287.09 306.54 283.67 300.33C280.24 294.11 270.75 296.05 264.33 293.67C257.9 291.29 247.55 294.93 241 296C242.15 302.04 241.76 307.92 235 309C238.47 303.05 231.19 304.35 228 306C230.79 301.62 224.08 302.13 226 297C219.44 298.19 219.77 290.57 218 287C224.87 280.98 233.05 282.82 240.23 287.77C247.41 292.72 257.86 288.2 264 291ZM246 309C244.92 314.11 245.6 313.59 248 316C245.2 317.64 241.51 315.75 239 314C242.2 313.61 242.73 309.23 246 309Z" fill="#854C41"></path>
<path d="M270 166C261.38 164.58 265.45 154.15 263 149C261.36 159.43 254.66 158.12 248.07 155.07C241.49 152.02 231.46 160.53 228 150C211.48 150.68 195.56 153.72 180 158C184.39 160.8 176.8 161.88 176 165C184.61 166.33 176.15 175.4 182.77 178.23C189.39 181.06 193.82 179.59 199.25 183.75C204.68 187.92 210.48 189.37 216.98 190.02C223.47 190.68 230.09 191.07 232 198C240.91 195.3 251.59 191.66 253.01 181.01C254.43 170.36 270.44 170.34 277 176C275.72 184.53 281.07 192 286.08 197.92C291.1 203.83 301.64 207.6 305 200C309.54 199.47 313.7 200.64 318 201C313.49 196.36 322.18 198.43 325 198C325.99 193.82 329.74 192.23 324 192C327.92 189.07 332.27 192.05 336.98 193.02C341.69 193.99 342.41 191.55 348 193C346.14 190.97 343.28 189.79 341 188C344.82 187.36 343.05 181.51 348 183C347.96 172.74 337.49 172.45 330.7 168.3C323.9 164.16 315.54 159.44 307.01 162.01C298.47 164.57 290.31 157.43 284 162C280.67 156.8 274.74 155.39 273 151C273.95 156.56 271.94 161.28 270 166ZM252 168C247.34 168.92 241.08 166.81 244 175C240.48 175 234.68 170.25 237 177C233.77 174.68 229.22 172 226 169C224.76 174.69 220.48 179.35 214 178C207.52 176.65 203.96 168.29 213 170C204.82 166.48 199.7 177.43 191 172C191.56 167.45 197.52 166.84 200 164C198.67 161.32 192.8 165.15 193 161C212.08 151.58 235.24 155.04 252 168ZM334 185C331.23 183.23 329.64 185.43 327 186C325.11 183.77 322.33 181.93 320 180C316.53 190.88 301.45 188.72 300 178C292.31 177.36 300.04 186.61 292.97 186.97C285.9 187.33 289.39 182.55 292 179C289.03 179.35 283.36 177.66 284.03 172.97C284.69 168.29 293.07 171.62 292 165C299.28 169.12 312.69 164.42 319.25 168.75C325.8 173.08 331.16 178.36 334 185Z" fill="#854C41"></path>
<path d="M130 155C125.48 157.74 126.36 165.47 129 169C128.1 164.13 127.52 159.43 130 155Z" fill="#854C41"></path>
<path d="M140 169C136.58 167 134.45 163.05 131 161C131.85 169.99 132.95 179.4 134 188C135.48 181.47 137.17 175.09 140 169Z" fill="#854C41"></path>
<path d="M130 173C128.88 174.82 126.97 179.13 129 181C128.91 178.18 130.67 175.94 130 173Z" fill="#854C41"></path>
<path d="M374 206C374.63 201.59 376.57 195.79 375 192C370.26 194.44 371.43 202.4 374 206Z" fill="#854C41"></path>
<path d="M251 247C250.22 239.72 241.6 236.63 235 238C235.37 242.97 239.27 248.92 245 248C242.26 243.03 248.68 246.74 251 247Z" fill="#854C41"></path>
<path d="M279 353C270.28 354.17 259.6 358.83 250 356C240.4 353.17 232.01 353.32 225.25 345.75C218.48 338.19 211.05 337.35 204 332C213.13 350.65 234.07 361.4 249 371C249.48 367.14 254.83 367.6 251 371C255.58 369.67 260.15 375.09 264 372C259.52 370.47 254.92 369.05 253 364C261.26 365.45 269.81 371.57 278 367C275.34 361.73 272.64 357.55 279 353Z" fill="#854C41"></path>
<path d="M46 388C46.42 388.81 46.56 389.32 47 390C50.25 391.38 55.48 389.92 60.02 390.98C64.57 392.03 65.16 399.56 60.78 396.22C56.39 392.87 52.28 394.28 48 392C47.68 393.46 45.87 393.05 45 394C46.65 400.59 54.34 402.18 57 407C57.33 405.16 68.57 411.27 65 414C62.2 412.57 61.78 408.46 58 409C58.75 410.68 60.43 412.04 62 413C59.52 418.18 69.3 427.21 75.75 433.25C82.2 439.28 90.02 446.44 96.77 452.23C103.51 458.02 111.6 464.54 119.77 469.23C127.94 473.92 136.33 480.63 144 485C166.66 493.8 188.04 501.76 214 506C239.96 510.23 274.51 510.57 301 506C297.72 504.08 303.71 500.05 306.23 498.23C308.75 496.41 313.76 496.55 316 500C314.38 492.58 323.58 495.75 326 499C325.92 500.26 323.94 499.56 324 501C330.01 499.51 336.89 497.81 342 497C352.38 493.45 363.13 487.5 373 482C365.84 479.51 355.55 478.17 353 470C350.12 474.38 349.7 468.61 349 466C351.58 464.72 355.22 463.78 354 460C355.88 463.38 361.16 460.64 363 458C359.34 457.86 351.02 458.51 356 453C348.83 457.73 348.32 447.71 346 445C347.81 444.47 350.06 441.67 347 441C348.05 438.54 350.47 440.27 352 439C351.04 433.98 346.95 437.36 344 438C341.61 434.67 343.51 431.46 342 428C340.8 434.54 337.32 429.26 335 428C336.51 424.9 335.58 422.73 333 421C330.34 422.57 333.59 427.36 331 429C330.01 423.13 328.31 418.26 329 413C326.42 415.47 324.48 412.25 322 412C322.16 407.69 327.31 405.39 327 401C325.34 403.29 322.72 405.45 321 408C316.61 405.27 313.37 410.18 309 410C311.07 407.75 314.65 407.25 317 405C307.54 403.22 291.21 413.63 284 403C276.5 408.61 262.69 405.79 254.02 404.98C245.36 404.17 233.74 403.34 232 394C227.43 393.23 228.14 398.8 229 400C252.05 411.4 277.57 420.06 304 417C264.38 428.43 227.3 403.2 194 387C171.28 375.19 145.83 367.06 123 354C134.03 363.68 151.6 367.69 164 376C154.21 371.51 144.4 369.17 134.69 364.31C124.99 359.44 114.98 359.34 107 361C110.23 363.74 109.93 366.78 111 371C104.79 369.71 98.95 367.92 93 368C90.39 369.64 94.19 372.56 93 375C88.51 373.23 83.44 372.83 79 375C81.06 375.28 85.09 375.35 85 378C81.29 378.69 75.84 377.68 72.02 375.98C68.21 374.27 61.24 378.81 63 374C57.6 373.98 52.92 376.49 48 378C56.94 378.89 64.4 382.82 72.92 387.08C81.45 391.34 89.29 394.2 98.33 397.67C107.37 401.14 116.97 402.75 127 404C137.03 405.25 151.74 403.85 161.78 405.22C171.82 406.6 183 407 190 412C186.54 410.97 178.96 411.93 177.3 412.72C175.65 413.5 169.53 412.29 171 417C166.6 415.86 161.51 413.42 157 416C158.94 420.21 165.31 421.04 166 426C157.57 422.22 148.92 421.8 138.68 419.32C128.43 416.85 118.75 413.97 110.08 407.92C101.4 401.87 92.21 400.19 83 396C82.56 399.26 86.25 398.7 88 400C82.62 404.41 93.04 410.1 96.25 415.75C99.45 421.41 106.5 425.35 109.69 431.31C112.89 437.26 114.45 445.12 120 450C111.21 444.01 106.01 432.92 99.92 424.08C93.83 415.25 85.42 406.21 79 399C75.33 400.17 68.46 398.75 67.97 395.03C67.48 391.31 61.76 388.91 59 389C56.24 389.09 47.67 386.41 46 388ZM115 375C112.93 381.47 123.16 382.8 126 387C118.25 383.84 110.09 377.82 105 372C108.43 372.62 111.53 374.38 115 375ZM86 432C88.18 434.47 91.77 434.4 94 436C84.95 442.45 85.18 430.03 82 425C85.5 425.83 89.12 429.29 86 432Z" fill="#854C41"></path>
<path d="M309 360C301.85 362.03 309.35 369.79 311.69 375.31C314.04 380.82 317.3 389.46 317 396C324.25 395.62 316.7 385.37 320 382C321.11 386.07 323.24 389.83 324 394C324.9 382.1 316.36 369.86 309 360Z" fill="#854C41"></path>
<path d="M452 386C448.07 382.49 448.53 376.56 445 373C446.57 377.37 446.67 384.69 452 386Z" fill="#854C41"></path>
<path d="M441 397C439.45 392.33 440.3 384.63 437 382C435.36 385.19 434.44 393.51 438 387C438.28 390.47 438.57 394.54 441 397Z" fill="#854C41"></path>
<path d="M460 398C463.76 393.09 457.3 383.62 455 392C458.56 391.84 458.88 394.83 460 398Z" fill="#854C41"></path>
<path d="M230 393C229.82 389.72 225.32 389.96 223 389C224.47 391.13 227.24 393.14 230 393Z" fill="#854C41"></path>
<path d="M74 395C69.18 389.45 68.68 398.02 74 395Z" fill="#854C41"></path>
<path d="M453 412C454.66 409.48 455.43 407.22 457 405C455.69 405.54 454.56 406.41 453 406C452.44 407.75 453.74 410.33 453 412Z" fill="#854C41"></path>
<path d="M142 413C137.88 414.3 133.29 410.42 130 413C133.9 412.71 138.66 415.75 142 413Z" fill="#854C41"></path>
<path d="M337 413C334.72 415.54 335.32 418.81 337 421C339.76 419.06 336.55 415.56 337 413Z" fill="#854C41"></path>
<path d="M403 463C408.66 460.65 410.7 456.92 415 453C410.78 448.63 411.67 441.34 407 437C404.94 440.15 409.15 446.54 406 450C405.91 437.53 402.52 425.87 397 415C395.71 418.59 393.61 420.79 395 426C395.08 421.39 388.68 418.91 388 425C395.07 421.86 390.24 425.66 390 430C392 431.19 394.55 429.32 396 432C393.45 432.02 391.75 433.74 391 436C398.17 430.78 398.98 440.22 399.68 445.32C400.37 450.43 403.96 458.11 403 463Z" fill="#854C41"></path>
<path d="M436 432C437.02 431 438.05 430.21 439 429C436.92 428.09 438.94 424.43 436 424C435.45 426.5 436.73 429.55 436 432Z" fill="#854C41"></path>
<path d="M425 426C423.82 428.93 424.16 435.59 427 438C426.08 434.05 426.19 429.85 425 426Z" fill="#854C41"></path>
<path d="M398 466C398.93 465.45 400.13 464.5 401 464C397.13 456.07 395.58 446.25 395 437C386.97 444.43 401.05 457.12 398 466Z" fill="#854C41"></path>
<path d="M362 452C357.55 450.69 359.34 444.85 356 443C358.08 446.78 353.43 445.5 353 449C357.45 446.66 361.86 453.92 357 456C359.94 456.76 361.11 454.14 362 452Z" fill="#854C41"></path>
<path d="M417 452C418.51 450.91 418.1 450.25 419 449C417.86 448.97 417.28 447.47 416 448C416.33 448.57 416.89 452.19 417 452Z" fill="#854C41"></path>
<path d="M378 479C379 478.4 380.14 477.52 381 477C379.84 473.67 374.55 473.23 376 469C372.05 469.18 370.69 469.1 373 466C369.43 469 366.02 465.56 362 465C368.59 463.97 365.58 461.08 361.01 463.01C356.44 464.94 355.99 465.69 351 466C355.42 474.32 367.39 480.71 378 479Z" fill="#854C41"></path>
<path d="M252 168C235.24 155.04 212.08 151.58 193 161C192.8 165.15 198.67 161.32 200 164C197.52 166.84 191.56 167.45 191 172C199.7 177.43 204.82 166.48 213 170C203.96 168.29 207.52 176.65 214 178C220.48 179.35 224.76 174.69 226 169C229.22 172 233.77 174.68 237 177C234.68 170.25 240.48 175 244 175C241.08 166.81 247.34 168.92 252 168Z" fill="#743133"></path>
<path d="M334 185C331.16 178.36 325.8 173.08 319.25 168.75C312.69 164.42 299.28 169.12 292 165C293.07 171.62 284.69 168.29 284.03 172.97C283.36 177.66 289.03 179.35 292 179C289.39 182.55 285.9 187.33 292.97 186.97C300.04 186.61 292.31 177.36 300 178C301.45 188.72 316.53 190.88 320 180C322.33 181.93 325.11 183.77 327 186C329.64 185.43 331.23 183.23 334 185Z" fill="#743133"></path>
<path d="M222 274C228.05 261.01 239.23 274.56 245.07 265.07C250.91 255.59 232.64 253.11 229 263C220.47 256.76 211.61 263.33 219 273C217.62 274.39 216.31 276.27 215 278C222.5 275.68 231.25 282.73 237 278C232.24 275.69 226.53 276.92 222 274Z" fill="#743133"></path>
<path d="M185 313C190.65 319.81 197.43 325.43 204 332C211.05 337.35 218.48 338.19 225.25 345.75C232.01 353.32 240.4 353.17 250 356C259.6 358.83 270.28 354.17 279 353C280.29 353.17 280.75 354.7 282 355C287.77 349.28 295.02 346.44 302.75 340.75C310.48 335.07 314.18 327.95 320 321C318.25 315.82 315.61 320.98 313 319C318.25 313.31 314.45 307.68 310 303C302.55 307.12 303.55 316.31 298 322C299.71 323.01 302.05 324.78 302 327C296.32 330.17 289.24 332.72 282 335C284.48 327.24 273.14 327.68 277 335C273.47 334.79 271.16 334.19 268 332C266.83 334.03 264.7 336.6 262 336C259.71 329.67 256.53 331.94 251 334C245.48 336.06 242.15 329.16 243 324C241.05 324.89 238.93 325.83 238 328C235.65 322.6 232.13 323 227 325C222.32 306.54 199.88 305.14 184 307C183.73 309.22 184.07 311.09 185 313Z" fill="#743133"></path>
<path d="M229 400C218.01 394.57 204.86 392.55 194 387C227.3 403.2 264.38 428.43 304 417C277.57 420.06 252.05 411.4 229 400Z" fill="#743133"></path>
<path d="M301 506C308.76 504.66 316.41 502.88 324 501C323.94 499.56 325.92 500.26 326 499C323.58 495.75 314.38 492.58 316 500C313.76 496.55 308.75 496.41 306.23 498.23C303.71 500.05 297.72 504.08 301 506Z" fill="#743133"></path>
</svg><style>@media (prefers-color-scheme: light) { :root { filter: none; } }
@media (prefers-color-scheme: dark) { :root { filter: contrast(1) brightness(1.1); } }
</style></svg>