<svg width="100" height="100" viewBox="0 0 100 100" fill="none" xmlns="http://www.w3.org/2000/svg">
<rect width="100" height="100" rx="20" fill="#F45D22"/>
<path fill-rule="evenodd" clip-rule="evenodd" d="M0 20C0 8.95431 8.95431 0 20 0H25H50H55C66.0457 0 75 8.95431 75 20V25V27.5C75 34.4036 69.4036 40 62.5 40H57.5C53.3579 40 50 36.6421 50 32.5V32.5C50 28.3579 46.6421 25 42.5 25H37.5C30.5964 25 25 30.5964 25 37.5V62.5C25 69.4036 30.5964 75 37.5 75H42.5C46.6421 75 50 71.6421 50 67.5V67.5C50 63.3579 53.3579 60 57.5 60H62.5C69.4036 60 75 65.5964 75 72.5V75V80C75 91.0457 66.0457 100 55 100H50H25H20C8.95431 100 0 91.0457 0 80V75V25V20Z" fill="#333333" fill-opacity="0.8"/>
</svg>
