<svg xmlns="http://www.w3.org/2000/svg" xmlns:xlink="http://www.w3.org/1999/xlink" id="Layer_1" x="0px" y="0px" viewBox="0 0 222.2 339.9" style="enable-background:new 0 0 222.2 339.9;" xml:space="preserve">
<style type="text/css">
	.st0{fill:#002D52;}
	.st1{fill:#F57E20;}
	.st2{fill:#FFFFFF;}
	.st3{fill:#B7C5DE;}
</style>
<g>
	<g>
		<g>
			<rect x="17.3" y="243.4" class="st1" width="187.6" height="32.5"></rect>
			<rect x="17.3" y="281.3" class="st0" width="187.6" height="40.5"></rect>
			<g>
				<g>
					<g>
						<g>
							<g>
								<polygon class="st2" points="61.2,304.5 77.6,304.5 77.6,299.1 55.3,299.1 55.3,314.8 77.8,314.8 77.8,309.3 61.2,309.3                   "></polygon>
								<rect x="112.8" y="287.9" class="st2" width="6" height="26.9"></rect>
								<polygon class="st2" points="147.3,287.9 122.9,287.9 122.9,293.6 132.1,293.6 132.1,314.8 138.2,314.8 138.2,293.6           147.3,293.6         "></polygon>
								<polygon class="st2" points="77.6,293.3 77.6,287.9 54.8,287.9 50.6,287.9 48.3,287.9 39.2,304.2 30,287.9 23.4,287.9           39.2,315.7 51.7,293.3         "></polygon>
								<path class="st2" d="M107.6,296.2c0-4.6-3.7-8.3-8.3-8.3l-16.4,0v5.2l0,0.2h16.3c1.6,0,2.9,1.3,2.9,2.9          c0,1.6-1.3,2.9-2.9,2.9l-16.1,0l-0.2,0l0,15.7h6v-10.1h5.7l6.8,10.1h7.1l-7.2-10.6C105,303.3,107.6,300,107.6,296.2z"></path>
								<path class="st2" d="M142.1,314.5l-0.2,0.3h6.2l2.5-4.4h8.7l2.6-4.8l5.1,9.1l0.1,0.1h6.2l-15.6-27.8L142.1,314.5z           M153.4,305.6l4.3-7.5l4.2,7.5H153.4z"></path>
								<path class="st2" d="M190.2,298.6h-10.4c-1.4,0-2.6-1.2-2.6-2.6c0-1.4,1.2-2.6,2.6-2.6h16v-5.5h-16c-4.5,0-8.1,3.6-8.1,8.1          c0,4.4,3.6,8,8,8.1h10.5c1.4,0,2.6,1.2,2.6,2.6s-1.2,2.6-2.6,2.6h-16.4l3.1,5.5h13.3c4.5,0,8.1-3.6,8.1-8.1          C198.3,302.3,194.7,298.6,190.2,298.6z"></path>
							</g>
							<g>
								<g>
									<path class="st2" d="M65.5,264.5c-0.4,1.1-0.9,1.9-1.7,2.7c-0.7,0.7-1.6,1.2-2.6,1.6c-1,0.4-2.2,0.5-3.4,0.5           c-2.5,0-4.5-0.7-6-2.1c-1.5-1.4-2.2-3.5-2.2-6.3v-10.8h4.2v10.7c0,1.5,0.4,2.7,1.1,3.5c0.7,0.8,1.7,1.2,3,1.2           c1.3,0,2.3-0.4,3-1.1c0.7-0.8,1.1-1.9,1.1-3.4v-10.8H66v10.7C66,262.2,65.8,263.5,65.5,264.5z"></path>
									<g>
										<path class="st2" d="M91.2,254c-0.3-0.8-0.8-1.5-1.4-2.1c-0.6-0.6-1.4-1-2.3-1.3c-0.9-0.3-1.9-0.5-3-0.5h-7.7v3.8h7.4            c1,0,1.9,0.2,2.5,0.7c0.6,0.5,0.9,1.2,0.9,2.1v0.1c0,0.8-0.3,1.5-0.9,2c-0.6,0.6-1.4,0.8-2.4,0.8h-7.5v9.4h4.2v-5.7h3.2            c1.1,0,2.1-0.1,3-0.4c0.9-0.3,1.7-0.7,2.4-1.3c0.7-0.6,1.2-1.3,1.6-2.1c0.4-0.8,0.6-1.8,0.6-2.9v-0.1            C91.7,255.7,91.5,254.8,91.2,254z"></path>
									</g>
									<g>
										<path class="st2" d="M113.1,262.3c1.2-0.5,2.2-1.2,2.9-2.1c0.7-1,1.1-2.2,1.1-3.7v-0.1c0-2-0.6-3.5-1.9-4.6            c-1.3-1.1-3-1.6-5.3-1.6h-8.6v3.8h8.3c1,0,1.8,0.2,2.4,0.7c0.6,0.5,0.9,1.1,0.9,2v0.1c0,0.8-0.3,1.5-0.8,1.9            c-0.6,0.5-1.3,0.7-2.4,0.7h-8.4v9.7h4.2V263h3.3l4.1,6.1h4.9L113.1,262.3z"></path>
									</g>
									<g>
										<polygon class="st2" points="142,269 142,265.3 132.1,265.3 132.1,261.3 142,261.3 142,257.6 128,257.6 128,269                       "></polygon>
										<rect x="128" y="250.1" class="st2" width="14.1" height="3.7"></rect>
									</g>
									<g>
										<polygon class="st2" points="197.1,269 197.1,265.3 187.2,265.3 187.2,261.3 197.1,261.3 197.1,257.6 183.1,257.6             183.1,269           "></polygon>
										<rect x="183.1" y="250.1" class="st2" width="14.1" height="3.7"></rect>
									</g>
									<path class="st2" d="M168,269v-12.3l-5.3,8.1h-0.1l-5.3-8V269h-4.1v-18.9h4.5l5,8l5-8h4.5V269H168z"></path>
								</g>
								<path class="st2" d="M35.2,257.6h-5.4c-1,0-1.8-0.8-1.8-1.8c0-1,0.8-1.8,1.8-1.8h9.3v-3.8h-9.3c-3.1,0-5.7,2.5-5.7,5.7          c0,3.1,2.5,5.6,5.6,5.7h5.4c1,0,1.8,0.8,1.8,1.8s-0.8,1.8-1.8,1.8h-9.7v3.8h9.7c3.1,0,5.7-2.5,5.7-5.7          C40.9,260.2,38.4,257.6,35.2,257.6z"></path>
							</g>
						</g>
					</g>
				</g>
			</g>
		</g>
		<path class="st3" d="M110.8,16.1C59.1,16.1,17,45.9,17,97.6v48.1c0,51.7,42.1,82.4,93.8,82.4c51.7,0,93.8-30.7,93.8-82.4V97.6    C204.5,45.9,162.5,16.1,110.8,16.1z M199.6,145.7c0,52.9-39.8,80-88.8,80c-49,0-88.8-27.2-88.8-80V97.6c0-52.9,39.8-80,88.8-80    c49,0,88.8,27.2,88.8,80V145.7z"></path>
		<path class="st0" d="M110.8,191c-16,0-30.2-4.7-40-13.2c-9.2-7.9-14-19-14-32.1V97.6c0-13.1,4.8-24.2,14-32.1    c9.9-8.5,24.1-13.2,40-13.2c16,0,30.2,4.7,40,13.2c9.2,7.9,14,19,14,32.1v48.1c0,13.1-4.8,24.2-14,32.1    C141,186.3,126.7,191,110.8,191z"></path>
		<g>
			<g>
				<g>
					<path class="st2" d="M111.1,153.6l-4.9-4.9l36-34.7v-11.7l-41.8,40.6l-21.1-21.1v7.7c0,3.7,1.5,7.3,4.1,9.9l27.3,27.3       l27.3-27.3c2.6-2.6,4.1-6.2,4.1-9.9v-6L111.1,153.6z"></path>
					<polygon class="st2" points="100.3,132 142.2,91.7 142.2,91.3 79.3,91.3 79.3,110.9      "></polygon>
				</g>
			</g>
			<polygon class="st1" points="155.4,79.2 144.5,79.2 100.3,121.7 79.3,100.7 79.3,111.6 100.3,132.6    "></polygon>
		</g>
		<path class="st3" d="M157.3,58c-11.7-10.1-28.2-15.6-46.5-15.6c-18.3,0-34.9,5.5-46.5,15.6c-11.4,9.9-17.4,23.5-17.4,39.6v48.1    c0,16,6,29.7,17.4,39.6c11.7,10.1,28.2,15.6,46.5,15.6c18.3,0,34.9-5.5,46.5-15.6c11.4-9.9,17.4-23.5,17.4-39.6V97.6    C174.7,81.6,168.7,67.9,157.3,58z M110.8,192.6c-16.3,0-30.9-4.8-41.1-13.6c-9.5-8.2-14.6-19.7-14.6-33.3V97.6    c0-13.6,5-25.1,14.6-33.3c10.1-8.8,24.7-13.6,41.1-13.6c16.3,0,30.9,4.8,41.1,13.6c9.5,8.2,14.6,19.7,14.6,33.3v48.1    c0,13.6-5,25.1-14.6,33.3C141.7,187.8,127.1,192.6,110.8,192.6z"></path>
		<g>
			<path class="st0" d="M38,145.4h-6.6c-0.1,0-0.2,0.1-0.2,0.2v1.7c0,0.2-0.2,0.3-0.9,0.3c-0.7,0-0.8-0.1-0.8-0.3v-5.8     c0-0.2,0.2-0.3,0.8-0.3c0.7,0,0.9,0.1,0.9,0.3v1.7c0,0.1,0.1,0.2,0.2,0.2H38c0.2,0,0.3,0.2,0.3,1C38.3,145.2,38.1,145.4,38,145.4     z"></path>
			<path class="st0" d="M33.9,136.1c-3,0-4.5-1.9-4.5-4.2s1.4-4.2,4.5-4.2s4.5,1.8,4.5,4.2C38.4,134.4,36.9,136.1,33.9,136.1z      M33.9,129.7c-2.2,0-2.9,1-2.9,2.2c0,1.2,0.7,2.2,2.9,2.2c2.2,0,2.9-0.9,2.9-2.2C36.8,130.7,36.1,129.7,33.9,129.7z"></path>
			<path class="st0" d="M38,120.1l-7.9,2.2c0,0-0.2,0.1-0.2,0.1c-0.2,0-0.3-0.1-0.3-0.9c0-0.8,0.1-1,0.3-1.1l5.6-1.5l-5.3-1.6     c-0.3-0.1-0.4-0.2-0.4-0.9c0-0.7,0.1-0.8,0.4-0.9l5.3-1.6l-5.6-1.5c-0.2,0-0.3-0.2-0.3-1.1c0-0.8,0.1-0.9,0.3-0.9     c0,0,0.2,0.1,0.3,0.1l7.9,2.2c0.2,0.1,0.3,0.2,0.3,1c0,0.8-0.1,1-0.3,1l-5.4,1.7l5.4,1.7c0.2,0.1,0.3,0.2,0.3,1     C38.3,119.9,38.2,120.1,38,120.1z"></path>
			<path class="st0" d="M36.8,103.2c0,0.1,0,0.2,0.2,0.2l1,0.4c0.2,0.1,0.3,0.3,0.3,1.1c0,0.8-0.1,1-0.2,1c-0.1,0-0.2,0-0.3-0.1     l-7.8-2.9c-0.3-0.1-0.4-0.4-0.4-1.1c0-0.7,0.1-1,0.4-1.1l7.8-3c0.2-0.1,0.2-0.1,0.3-0.1c0.1,0,0.2,0.2,0.2,1c0,0.7-0.1,1-0.3,1.1     l-1,0.4c-0.1,0.1-0.2,0.1-0.2,0.2V103.2z M35.3,100.8c0-0.1-0.1-0.2-0.2-0.2l-2.8,1c-0.1,0-0.2,0.1-0.2,0.2     c0,0.1,0.1,0.1,0.2,0.2l2.8,1c0.1,0,0.2-0.1,0.2-0.2V100.8z"></path>
			<path class="st0" d="M38.1,91.9l-7.7-1c-0.4,0-0.6-1.3-0.4-2.8c0.3-2.3,1.5-3.6,3.2-3.4c2,0.2,2.5,2.2,2.5,2.2     c0.3-0.5,2.3-1,2.5-2c0-0.1,0-0.2,0-0.3c0-0.1,0.1-0.2,0.2-0.2c0.3,0,0.9,0.9,0.8,1.8c-0.3,2.1-3,1.7-3.2,2.8L36,89.5     c0,0.1,0,0.2,0.1,0.2l2.2,0.3c0.2,0,0.3,0.2,0.2,1C38.4,91.7,38.2,91.9,38.1,91.9z M34.5,88.8c0.1-1-0.1-1.9-1.5-2.1     c-1.1-0.1-1.5,0.5-1.6,1.4c-0.1,0.7,0,1,0.3,1l2.3,0.3C34.3,89.4,34.5,89.3,34.5,88.8z"></path>
			<path class="st0" d="M41.6,76.6C41.1,78,40.4,79.1,40,79l-7.1-2.5c-0.4-0.1-0.3-1.4,0.3-2.9c0.8-2.2,2.3-4.3,5.7-3.1     C42,71.6,42.5,74.2,41.6,76.6z M34.6,74c-0.2,0.6-0.2,1,0.1,1.1l4.8,1.7c0.2,0.1,0.5,0,0.8-0.7c0.4-1.2,0.3-2.8-2.1-3.7     C35.8,71.5,35.1,72.7,34.6,74z"></path>
			<path class="st0" d="M45,66.4c-0.5-0.1-1-0.4-1.2-0.5c-0.1-0.1-0.2-0.2-0.1-0.3c0.1-0.2,1.5-0.5,2.3-1.8c0.4-0.7,0.3-1.3-0.2-1.6     c-0.6-0.4-1.2,0.2-1.9,0.7c-1,0.8-2.1,1.7-3.5,0.8c-1.3-0.8-1.5-2.6-0.5-4.1c0.9-1.5,2.1-1.7,2.3-1.6c0.2,0.1,0.6,0.9,0.5,1.1     c-0.1,0.2-0.8,0.3-1.4,1.2c-0.5,0.8-0.5,1.4,0,1.7c0.5,0.3,1.1-0.1,1.7-0.7c1-0.8,2.2-1.9,3.7-0.9c1.3,0.8,1.7,2.5,0.6,4.2     C46.6,65.8,45.3,66.5,45,66.4z"></path>
			<path class="st0" d="M57,51.5c-0.4-0.2-0.8-0.7-1-0.9c-0.1-0.1-0.1-0.2,0-0.3c0.2-0.2,1.6,0,2.8-1c0.6-0.5,0.7-1.2,0.4-1.6     c-0.4-0.5-1.2-0.2-2.1,0.1c-1.2,0.4-2.5,0.9-3.5-0.3c-1-1.2-0.6-2.9,0.9-4.1c1.3-1.1,2.5-0.9,2.6-0.8c0.2,0.2,0.3,1.1,0.1,1.2     c-0.2,0.2-0.9,0.1-1.7,0.7c-0.7,0.6-0.9,1.2-0.5,1.6c0.4,0.5,1.1,0.2,1.9-0.1c1.2-0.5,2.7-1.1,3.8,0.3c1,1.2,0.8,2.9-0.7,4.1     C58.8,51.5,57.4,51.7,57,51.5z"></path>
			<path class="st0" d="M65.4,42.4l-2.5-4.5c-0.1-0.1,0-0.3,0.7-0.7c0.7-0.4,0.9-0.3,1-0.2l2.3,4.2c0.7,1.2,1.5,1.6,2.5,1.1     c1-0.6,1.2-1.5,0.5-2.7l-2.3-4.2c-0.1-0.1,0-0.3,0.7-0.7c0.7-0.4,0.9-0.3,1-0.2l2.5,4.5c0.9,1.7,0.7,3.5-1.6,4.7     C67.9,44.9,66.3,44.1,65.4,42.4z"></path>
			<path class="st0" d="M78.7,38.6c-0.3-0.4-0.5-1-0.6-1.2c0-0.1,0-0.2,0.1-0.3c0.2-0.1,1.5,0.5,3,0c0.8-0.3,1.1-0.8,0.9-1.4     c-0.2-0.7-1-0.6-2-0.6c-1.2,0-2.7,0-3.2-1.5c-0.5-1.5,0.5-2.9,2.2-3.5c1.6-0.6,2.7,0,2.7,0.2c0.1,0.2-0.1,1.1-0.3,1.1     c-0.3,0.1-0.9-0.2-1.9,0.1c-0.9,0.3-1.2,0.8-1,1.3c0.2,0.6,0.9,0.6,1.8,0.6c1.3,0,2.9-0.1,3.4,1.6c0.5,1.5-0.2,3-2.1,3.6     C80.4,39.1,79,38.9,78.7,38.6z"></path>
			<path class="st0" d="M91.7,35.5l-1.3-6.4c0-0.1-0.1-0.2-0.2-0.2l-1.7,0.3c-0.2,0-0.3-0.1-0.5-0.8c-0.1-0.6,0-0.8,0.1-0.9l5.6-1.1     c0.2,0,0.3,0.1,0.4,0.7c0.1,0.7,0,0.9-0.1,0.9l-1.7,0.3c-0.1,0-0.2,0.1-0.2,0.2l1.3,6.4c0,0.2-0.1,0.3-0.9,0.5     C91.9,35.8,91.8,35.7,91.7,35.5z"></path>
			<path class="st0" d="M102.9,32.8c-0.1,0-0.2,0.1-0.2,0.2l-0.3,1.1c-0.1,0.2-0.3,0.3-1,0.3c-0.8,0.1-1,0-1-0.1     c0-0.1,0-0.2,0.1-0.3l2.4-8c0.1-0.3,0.4-0.4,1.1-0.5s1,0,1.2,0.3l3.5,7.6c0.1,0.2,0.1,0.2,0.1,0.3c0,0.1-0.2,0.2-1,0.3     c-0.7,0-1,0-1.1-0.2l-0.5-1c-0.1-0.1-0.1-0.2-0.2-0.2L102.9,32.8z M105.2,31.1c0.1,0,0.2-0.1,0.2-0.2l-1.1-2.7     c0-0.1-0.1-0.2-0.2-0.2s-0.1,0.1-0.1,0.2l-0.8,2.8c0,0.1,0.1,0.2,0.2,0.2L105.2,31.1z"></path>
			<path class="st0" d="M114.3,33.7l0.4-8.1c0-0.2,0.2-0.3,1-0.3c0.8,0,1,0.2,0.9,0.3l-0.4,8.1c0,0.2-0.2,0.3-1,0.3     C114.5,34,114.3,33.9,114.3,33.7z"></path>
			<path class="st0" d="M122.7,34.3l1.3-8.1c0-0.1,0.2-0.2,0.7-0.1c0.6,0.1,0.8,0.2,0.8,0.3l3.1,5.9l0.8-5.1c0-0.2,0.1-0.3,0.9-0.1     c0.8,0.1,0.9,0.3,0.9,0.4l-1.3,8.1c0,0.1-0.2,0.2-0.7,0.1c-0.6-0.1-0.8-0.2-0.8-0.3l-3.1-5.7l-0.8,4.9c0,0.2-0.1,0.3-0.9,0.1     C122.8,34.6,122.7,34.5,122.7,34.3z"></path>
			<path class="st0" d="M138.2,36.5c-0.1,0-0.2,0-0.3,0.1l-0.7,0.9c-0.1,0.2-0.4,0.1-1.1-0.1c-0.7-0.2-0.9-0.4-0.9-0.5     c0-0.1,0.1-0.2,0.2-0.3l5.2-6.5c0.2-0.3,0.5-0.3,1.2,0c0.7,0.2,0.9,0.4,0.9,0.8l0.4,8.3c0,0.2,0,0.3,0,0.3c0,0.1-0.3,0.1-1-0.1     c-0.7-0.2-0.9-0.4-0.9-0.6l0-1.1c0-0.1,0-0.2-0.2-0.2L138.2,36.5z M141,35.8c0.1,0,0.2,0,0.2-0.1l0-2.9c0-0.1,0-0.2-0.1-0.2     c-0.1,0-0.2,0.1-0.2,0.1l-1.8,2.3c0,0.1,0,0.2,0.1,0.2L141,35.8z"></path>
			<path class="st0" d="M155.4,42.7c-0.9,1.7-2.5,1.8-4.6,0.8c-1.6-0.9-2.5-1.7-2.3-2l3.5-6.7c0.2-0.3,1.4-0.1,2.9,0.7     c1.7,0.9,2.6,2.2,1.9,3.5c-0.6,1.2-2,1.2-2,1.2S156.2,41.3,155.4,42.7z M150.8,41.2c-0.1,0.2-0.1,0.5,0.7,0.9     c0.9,0.5,1.7,0.5,2.2-0.4c0.4-0.7-0.1-1.3-0.8-1.6l-0.8-0.4c-0.3-0.2-0.5-0.1-0.6,0.1L150.8,41.2z M152.8,38.4l0.5,0.3     c0.9,0.5,1.4,0.2,1.7-0.4c0.4-0.7,0-1.2-0.8-1.6c-0.6-0.3-0.9-0.3-1,0l-0.7,1.2C152.5,38.1,152.6,38.3,152.8,38.4z"></path>
			<path class="st0" d="M159.1,48.1l5.1-6.4c0.1-0.1,0.3-0.1,0.9,0.4c0.6,0.5,0.7,0.7,0.6,0.8l-4.1,5.2c-0.1,0.1-0.1,0.2,0,0.3     l0.8,0.6c1.6,1.2,2,1.2,2.2,1.3c0.1,0.1,0.1,0.2,0,0.3c-0.7,0.9-1.2,1.3-1.7,1l-3.8-3C159.1,48.4,159,48.2,159.1,48.1z"></path>
			<path class="st0" d="M167.8,55.5l6.1-5.2c0.2-0.2,0.4-0.1,0.5,0l3,3.5c0.4,0.4,0,1-0.8,1.7c-0.1,0.1-0.2,0.1-0.3,0     c-0.1-0.2-0.1-0.6-1.4-2.1l-0.6-0.7c-0.1-0.1-0.2-0.1-0.3,0l-1.2,1c-0.1,0.1-0.1,0.2,0,0.3l1.5,1.8c0.1,0.1,0.1,0.3-0.4,0.8     c-0.5,0.4-0.7,0.5-0.8,0.3l-1.5-1.8c-0.1-0.1-0.2-0.1-0.3,0l-1.1,1c-0.1,0.1-0.1,0.2,0,0.3l0.8,1c1.3,1.5,1.7,1.5,1.9,1.7     c0.1,0.1,0.1,0.2,0,0.3c-0.8,0.7-1.4,1-1.8,0.6l-3.2-3.8C167.6,55.8,167.6,55.7,167.8,55.5z"></path>
			<path class="st0" d="M182,69.5c2.8-1.1,5,0.4,5.9,2.7c0.7,1.8,0.1,2.9-0.1,3c-0.2,0.1-1.1-0.1-1.2-0.3c-0.1-0.3,0.2-0.8-0.3-2     c-0.5-1.4-1.6-2.2-3.6-1.4c-1.9,0.7-2.2,2-1.7,3.2c0.3,0.9,0.9,1.1,1.2,1l1.7-0.6c0.2-0.1,1,1,1.1,1.3c0.1,0.2,0,0.3-0.2,0.4     l-2.4,0.9c-0.3,0.1-2-0.3-2.9-2.5C178.6,73,179,70.7,182,69.5z"></path>
			<path class="st0" d="M182.4,84l7.7-1.1c0.4-0.1,0.9,1.1,1.1,2.6c0.3,2.3-0.5,3.9-2.2,4.1c-2,0.3-3-1.5-3-1.5     c-0.2,0.6-2,1.6-1.8,2.6c0,0.1,0,0.2,0.1,0.3c0,0.1,0,0.2-0.1,0.2c-0.3,0.1-1.2-0.7-1.3-1.6c-0.3-2.1,2.5-2.4,2.3-3.5l-0.1-0.4     c0-0.1-0.1-0.1-0.2-0.1l-2.2,0.3c-0.2,0-0.3-0.1-0.4-0.9S182.2,84,182.4,84z M186.7,86c0.1,1,0.6,1.8,2,1.6     c1.1-0.2,1.3-0.9,1.2-1.7c-0.1-0.7-0.3-1-0.6-0.9l-2.3,0.3C186.7,85.3,186.6,85.5,186.7,86z"></path>
			<path class="st0" d="M187.7,96.4c3,0,4.5,1.9,4.5,4.2s-1.4,4.2-4.5,4.2s-4.5-1.8-4.5-4.2C183.2,98.1,184.6,96.4,187.7,96.4z      M187.6,102.8c2.2,0,2.9-1,2.9-2.2c0-1.2-0.7-2.2-2.9-2.2c-2.2,0-2.9,0.9-2.9,2.2C184.7,101.8,185.5,102.8,187.6,102.8z"></path>
			<path class="st0" d="M183.6,112.4l7.9-2.2c0,0,0.2-0.1,0.2-0.1c0.2,0,0.3,0.1,0.3,0.9c0,0.8-0.1,1-0.3,1.1l-5.6,1.5l5.3,1.6     c0.3,0.1,0.4,0.2,0.4,0.9c0,0.7-0.1,0.8-0.4,0.9l-5.3,1.6l5.6,1.5c0.2,0,0.3,0.2,0.3,1.1c0,0.8-0.1,0.9-0.3,0.9     c0,0-0.2-0.1-0.3-0.1l-7.9-2.2c-0.2-0.1-0.3-0.2-0.3-1c0-0.8,0.1-1,0.3-1l5.4-1.7l-5.4-1.7c-0.2-0.1-0.3-0.2-0.3-1     C183.3,112.6,183.4,112.4,183.6,112.4z"></path>
			<path class="st0" d="M183.6,129.4h6.6c0.1,0,0.2-0.1,0.2-0.2v-1.7c0-0.2,0.2-0.3,0.9-0.3c0.7,0,0.8,0.1,0.8,0.3v5.8     c0,0.2-0.2,0.3-0.8,0.3c-0.7,0-0.9-0.1-0.9-0.3v-1.7c0-0.1-0.1-0.2-0.2-0.2h-6.6c-0.2,0-0.3-0.2-0.3-1     C183.3,129.6,183.4,129.4,183.6,129.4z"></path>
			<path class="st0" d="M183.6,139.5h8.1c0.2,0,0.3,0.2,0.3,1c0,0.8-0.1,1-0.3,1h-3.2c-0.1,0-0.2,0.1-0.2,0.2v3.1     c0,0.1,0.1,0.2,0.2,0.2h3.2c0.2,0,0.3,0.2,0.3,1c0,0.8-0.1,1-0.3,1h-8.1c-0.2,0-0.3-0.2-0.3-1c0-0.8,0.1-1,0.3-1h2.8     c0.1,0,0.2-0.1,0.2-0.2v-3.1c0-0.1-0.1-0.2-0.2-0.2h-2.8c-0.2,0-0.3-0.2-0.3-1C183.3,139.7,183.4,139.5,183.6,139.5z"></path>
		</g>
	</g>
	<g>
		<path class="st1" d="M202.9,230.9c0.7,0.4,1.3,1,1.7,1.7c0.4,0.7,0.6,1.5,0.6,2.3c0,0.9-0.2,1.6-0.6,2.4c-0.4,0.7-1,1.3-1.7,1.7    c-0.7,0.4-1.5,0.6-2.4,0.6c-0.9,0-1.6-0.2-2.3-0.6c-0.7-0.4-1.3-1-1.7-1.7c-0.4-0.7-0.6-1.5-0.6-2.3c0-0.9,0.2-1.6,0.6-2.3    c0.4-0.7,1-1.3,1.7-1.7c0.7-0.4,1.5-0.6,2.4-0.6C201.4,230.3,202.2,230.5,202.9,230.9z M202.5,238.3c0.6-0.4,1.1-0.8,1.4-1.4    c0.3-0.6,0.5-1.3,0.5-2c0-0.7-0.2-1.4-0.5-2c-0.3-0.6-0.8-1.1-1.4-1.4c-0.6-0.3-1.2-0.5-2-0.5c-0.7,0-1.4,0.2-2,0.5    c-0.6,0.3-1.1,0.8-1.4,1.4c-0.3,0.6-0.5,1.3-0.5,2c0,0.7,0.2,1.4,0.5,2c0.3,0.6,0.8,1.1,1.4,1.4c0.6,0.3,1.3,0.5,2,0.5    C201.2,238.8,201.9,238.6,202.5,238.3z M202.6,235.1c-0.2,0.3-0.4,0.5-0.8,0.6l1.2,1.8h-1.1l-1-1.6h-0.1h-1v1.6h-1.1v-5.2h2.2    c0.7,0,1.2,0.2,1.6,0.5c0.4,0.3,0.6,0.8,0.6,1.3C202.9,234.5,202.8,234.8,202.6,235.1z M200.7,235c0.4,0,0.7-0.1,0.9-0.2    c0.2-0.2,0.3-0.4,0.3-0.7c0-0.3-0.1-0.5-0.3-0.7c-0.2-0.2-0.5-0.2-0.9-0.2h-1v1.8H200.7z"></path>
	</g>
</g>
</svg>